<svg viewBox="0 0 680 640" width="100%" role="img" xmlns="http://www.w3.org/2000/svg">
  <defs>
    <marker id="arrow2" viewBox="0 0 10 10" refX="8" refY="5" markerWidth="6" markerHeight="6" orient="auto-start-reverse">
      <path d="M2 1L8 5L2 9" fill="none" stroke="#888780" stroke-width="1.5" stroke-linecap="round" stroke-linejoin="round"/>
    </marker>
  </defs>

  <title>Cache验证环境分层协作框图</title>
  <desc>五层验证架构与组件协作关系</desc>

  <style>
    .th { font-family: -apple-system, sans-serif; font-size: 14px; font-weight: 500; }
    .ts { font-family: -apple-system, sans-serif; font-size: 12px; font-weight: 400; }
  </style>

  <!-- Layer 1 -->
  <rect x="40" y="20" width="600" height="70" rx="16" fill="#EEEDFE" stroke="#534AB7" stroke-width="1"/>
  <text class="th" x="60" y="42" fill="#26215C">Layer 1 — 测试层 (pytest)</text>

  <rect x="60" y="48" width="100" height="32" rx="6" fill="#FFFFFF" stroke="#534AB7" stroke-width="1"/>
  <text class="ts" x="110" y="64" text-anchor="middle" dominant-baseline="central" fill="#3C3489">Smoke</text>

  <rect x="175" y="48" width="100" height="32" rx="6" fill="#FFFFFF" stroke="#534AB7" stroke-width="1"/>
  <text class="ts" x="225" y="64" text-anchor="middle" dominant-baseline="central" fill="#3C3489">Directed (11个)</text>

  <rect x="290" y="48" width="100" height="32" rx="6" fill="#FFFFFF" stroke="#534AB7" stroke-width="1"/>
  <text class="ts" x="340" y="64" text-anchor="middle" dominant-baseline="central" fill="#3C3489">Corner</text>

  <rect x="405" y="48" width="100" height="32" rx="6" fill="#FFFFFF" stroke="#534AB7" stroke-width="1"/>
  <text class="ts" x="455" y="64" text-anchor="middle" dominant-baseline="central" fill="#3C3489">Random</text>

  <rect x="520" y="48" width="100" height="32" rx="6" fill="#FFFFFF" stroke="#534AB7" stroke-width="1"/>
  <text class="ts" x="570" y="64" text-anchor="middle" dominant-baseline="central" fill="#3C3489">conftest</text>

  <line x1="340" y1="90" x2="340" y2="112" stroke="#534AB7" stroke-width="1" marker-end="url(#arrow2)"/>

  <!-- Layer 2 -->
  <rect x="40" y="113" width="600" height="46" rx="16" fill="#E6F1FB" stroke="#185FA5" stroke-width="1"/>
  <text class="th" x="60" y="132" fill="#0C447C">Layer 2 — API 接口层 (Cache_api.py)</text>
  <text class="ts" x="352" y="132" fill="#0C447C">: send / drive / sample / step</text>

  <line x1="340" y1="159" x2="340" y2="181" stroke="#185FA5" stroke-width="1" marker-end="url(#arrow2)"/>

  <!-- Layer 3 -->
  <rect x="40" y="182" width="600" height="210" rx="16" fill="#E1F5EE" stroke="#1D9E75" stroke-width="1"/>
  <text class="th" x="60" y="204" fill="#085041">Layer 3 — Env 环境层 (CacheEnv)</text>

  <rect x="60" y="216" width="170" height="60" rx="10" fill="#9FE1CB" stroke="#1D9E75" stroke-width="1"/>
  <text class="th" x="145" y="240" text-anchor="middle" dominant-baseline="central" fill="#085041">CacheEnv</text>
  <text class="ts" x="145" y="260" text-anchor="middle" dominant-baseline="central" fill="#085041">时序协调 / 事务管理</text>

  <rect x="250" y="216" width="110" height="40" rx="8" fill="#FFFFFF" stroke="#D85A30" stroke-width="1"/>
  <text class="ts" x="305" y="231" text-anchor="middle" dominant-baseline="central" fill="#712B13">MockMem</text>
  <text class="ts" x="305" y="247" text-anchor="middle" dominant-baseline="central" fill="#712B13">内存模拟</text>

  <rect x="375" y="216" width="110" height="40" rx="8" fill="#FFFFFF" stroke="#D85A30" stroke-width="1"/>
  <text class="ts" x="430" y="231" text-anchor="middle" dominant-baseline="central" fill="#712B13">MockMMIO</text>
  <text class="ts" x="430" y="247" text-anchor="middle" dominant-baseline="central" fill="#712B13">MMIO模拟</text>

  <rect x="500" y="216" width="120" height="40" rx="8" fill="#FFFFFF" stroke="#D85A30" stroke-width="1"/>
  <text class="ts" x="560" y="231" text-anchor="middle" dominant-baseline="central" fill="#712B13">MockCoherence</text>
  <text class="ts" x="560" y="247" text-anchor="middle" dominant-baseline="central" fill="#712B13">一致性探测模拟</text>

  <line x1="230" y1="236" x2="248" y2="236" stroke="#D85A30" stroke-width="1" marker-end="url(#arrow2)"/>
  <line x1="230" y1="246" x2="248" y2="246" stroke="#D85A30" stroke-width="1" marker-end="url(#arrow2)"/>

  <rect x="60" y="288" width="140" height="40" rx="8" fill="#FFFFFF" stroke="#1D9E75" stroke-width="1"/>
  <text class="ts" x="130" y="303" text-anchor="middle" dominant-baseline="central" fill="#085041">DataGenerator</text>
  <text class="ts" x="130" y="320" text-anchor="middle" dominant-baseline="central" fill="#085041">随机事务生成</text>

  <rect x="215" y="288" width="140" height="40" rx="8" fill="#FFFFFF" stroke="#1D9E75" stroke-width="1"/>
  <text class="ts" x="285" y="303" text-anchor="middle" dominant-baseline="central" fill="#085041">Scoreboard</text>
  <text class="ts" x="285" y="320" text-anchor="middle" dominant-baseline="central" fill="#085041">参考模型比对</text>

  <rect x="370" y="288" width="140" height="40" rx="8" fill="#FFFFFF" stroke="#1D9E75" stroke-width="1"/>
  <text class="ts" x="440" y="303" text-anchor="middle" dominant-baseline="central" fill="#085041">Monitor</text>
  <text class="ts" x="440" y="320" text-anchor="middle" dominant-baseline="central" fill="#085041">信号监控采样</text>

  <rect x="525" y="288" width="95" height="40" rx="8" fill="#FAECE7" stroke="#D4537E" stroke-width="1"/>
  <text class="ts" x="572" y="303" text-anchor="middle" dominant-baseline="central" fill="#72243E">CacheCoverage</text>
  <text class="ts" x="572" y="320" text-anchor="middle" dominant-baseline="central" fill="#72243E">Toffee功能覆盖</text>

  <rect x="60" y="340" width="560" height="42" rx="8" fill="#EAF3DE" stroke="#639922" stroke-width="1"/>
  <text class="ts" x="340" y="356" text-anchor="middle" dominant-baseline="central" fill="#27500A">Toffee 功能覆盖: 12 CovGroups / 31功能点 / 37覆盖点 (全 100%)</text>
  <text class="ts" x="340" y="374" text-anchor="middle" dominant-baseline="central" fill="#27500A">FG-API | FG-CORE-CACHE | FG-MMIO-FLUSH-COH</text>

  <line x1="340" y1="392" x2="340" y2="414" stroke="#1D9E75" stroke-width="1" marker-end="url(#arrow2)"/>

  <!-- Layer 4 -->
  <rect x="40" y="415" width="600" height="66" rx="16" fill="#FAEEDA" stroke="#BA7517" stroke-width="1"/>
  <text class="th" x="60" y="438" fill="#633806">Layer 4 — Picker DUT 包装层</text>
  <text class="ts" x="60" y="460" fill="#633806">DUTCache / _UT_Cache.so · DPI引脚绑定 · XClock · XPort</text>

  <line x1="340" y1="481" x2="340" y2="503" stroke="#BA7517" stroke-width="1" marker-end="url(#arrow2)"/>

  <!-- Layer 5 -->
  <rect x="40" y="504" width="600" height="46" rx="16" fill="#FCEBEB" stroke="#A32D2D" stroke-width="1"/>
  <text class="th" x="60" y="523" fill="#791F1F">Layer 5 — 仿真引擎层 (Verilator + Cache_top.v)</text>

  <line x1="340" y1="550" x2="340" y2="568" stroke="#A32D2D" stroke-width="1" marker-end="url(#arrow2)"/>

  <rect x="190" y="569" width="300" height="46" rx="10" fill="#FFFFFF" stroke="#534AB7" stroke-width="1.5"/>
  <text class="th" x="340" y="588" text-anchor="middle" dominant-baseline="central" fill="#26215C">Cache.v (32KB, 4-Way, 128-Set, 64B/Line)</text>
  <text class="ts" x="340" y="606" text-anchor="middle" dominant-baseline="central" fill="#3C3489">Stage1 → Stage2 → Stage3 三阶段流水线</text>
</svg>